<svg xmlns="http://www.w3.org/2000/svg" width="293.833" height="270.204"><g class="com.sun.star.drawing.CustomShape"><path d="M146.934 270.142H.096V.096h293.675v270.046H146.934z" fill="#cfe7f5"/><path d="M146.934 270.142H.096V.096h293.675v270.046H146.934" fill="none" stroke="gray" stroke-width=".034"/><path fill="none" d="M.096.096h293.709v270.08H.096z"/></g><g class="com.sun.star.drawing.CustomShape"><path d="M146.934 270.142H.096v-60.76h293.675v60.76H146.934z" fill="#0ff"/><path d="M146.934 270.142H.096v-60.76h293.675v60.76H146.934" fill="none" stroke="gray" stroke-width=".034"/><path fill="none" d="M.096 209.382h293.709v60.794H.096z"/></g><g class="com.sun.star.drawing.CustomShape"><path d="M35.54 209.382H.096V.096h70.887v209.286H35.54z" fill="#09f"/><path d="M35.54 209.382H.096V.096h70.887v209.286H35.54" fill="none" stroke="gray" stroke-width=".034"/><path fill="none" d="M.096.096h70.921v209.32H.097z"/></g><g class="com.sun.star.drawing.CustomShape"><path d="M146.9 270.108H.062V.063h293.675v270.045H146.9z" fill="#cfe7f5"/><path d="M146.9 270.108H.062V.063h293.675v270.045H146.9" fill="none" stroke="gray" stroke-width=".034"/><path fill="none" d="M.062.063h293.709v270.079H.062z"/></g><g class="com.sun.star.drawing.CustomShape" stroke="#000"><path d="M146.9 270.108H.062v-37.131h293.675v37.131H146.9z" fill="#0ff"/><path d="M146.9 270.108H.062v-37.131h293.675v37.131H146.9" fill="none"/><path fill="none" d="M.062 232.977h293.709v37.165H.062z"/></g><g class="com.sun.star.drawing.CustomShape" stroke="#000"><path d="M27.067 232.977H.062V.063h54.01v232.914H27.067z" fill="#09f"/><path d="M27.067 232.977H.062V.063h54.01v232.914H27.067" fill="none"/><path fill="none" d="M.062.063h54.043V233.01H.062z"/></g><g class="com.sun.star.drawing.CustomShape"><path d="M212.757 118.241h-10.126V97.988h20.253v20.253h-10.127z" fill="#7e0021"/><path d="M212.757 118.241h-10.126V97.988h20.253v20.253h-10.127" fill="none" stroke="gray" stroke-width=".034"/><path fill="none" d="M202.63 97.988h20.288v20.287H202.63z"/></g><g class="com.sun.star.drawing.CustomShape"><path d="M178.968 94.578H168.84V74.325h20.253v20.253h-10.126z" fill="#7e0021"/><path d="M178.968 94.578H168.84V74.325h20.253v20.253h-10.126" fill="none" stroke="gray" stroke-width=".034"/><path fill="none" d="M168.841 74.325h20.287v20.287h-20.287z"/></g><g class="com.sun.star.drawing.CustomShape"><path d="M199.221 43.945h-10.127V23.692h20.254v20.253H199.22z" fill="#7e0021"/><path d="M199.221 43.945h-10.127V23.692h20.254v20.253H199.22" fill="none" stroke="gray" stroke-width=".034"/><path fill="none" d="M189.094 23.692h20.288v20.287h-20.288z"/></g><g class="com.sun.star.drawing.CustomShape"><path d="M131.71 57.447h-10.127V37.194h20.253v20.253H131.71z" fill="#7e0021"/><path d="M131.71 57.447h-10.127V37.194h20.253v20.253H131.71" fill="none" stroke="gray" stroke-width=".034"/><path fill="none" d="M121.583 37.194h20.287V57.48h-20.287z"/></g><g class="com.sun.star.drawing.CustomShape"><path d="M253.23 101.33h-10.126V81.076h20.253v20.254H253.23z" fill="#7e0021"/><path d="M253.23 101.33h-10.126V81.076h20.253v20.254H253.23" fill="none" stroke="gray" stroke-width=".034"/><path fill="none" d="M243.104 81.076h20.287v20.287h-20.287z"/></g><g class="com.sun.star.drawing.CustomShape"><path d="M226.226 162.09h-10.127v-20.254h20.253v20.254h-10.126z" fill="#7e0021"/><path d="M226.226 162.09h-10.127v-20.254h20.253v20.254h-10.126" fill="none" stroke="gray" stroke-width=".034"/><path fill="none" d="M216.099 141.836h20.287v20.288H216.1z"/></g><g class="com.sun.star.drawing.CustomShape"><path d="M141.836 155.339H131.71v-20.254h20.253v20.254h-10.127z" fill="#7e0021"/><path d="M141.836 155.339H131.71v-20.254h20.253v20.254h-10.127" fill="none" stroke="gray" stroke-width=".034"/><path fill="none" d="M131.71 135.085h20.287v20.288H131.71z"/></g><g class="com.sun.star.drawing.CustomShape"><path d="M27.067 229.601H3.438v-27.004h47.258V229.6H27.067z" fill="#ff950e"/><path d="M27.067 229.601H3.438v-27.004h47.258V229.6H27.067" fill="none" stroke="gray" stroke-width=".034"/><path fill="none" d="M3.438 202.597H50.73v27.038H3.438z"/></g><g class="com.sun.star.drawing.CustomShape"><path d="M27.067 199.221H3.438v-27.004h47.258v27.004H27.067z" fill="#ff950e"/><path d="M27.067 199.221H3.438v-27.004h47.258v27.004H27.067" fill="none" stroke="gray" stroke-width=".034"/><path fill="none" d="M3.438 172.217H50.73v27.038H3.438z"/></g><g class="com.sun.star.drawing.CustomShape"><path d="M27.067 168.841H3.438v-27.005h47.258v27.005H27.067z" fill="#ff950e"/><path d="M27.067 168.841H3.438v-27.005h47.258v27.005H27.067" fill="none" stroke="gray" stroke-width=".034"/><path fill="none" d="M3.438 141.836H50.73v27.039H3.438z"/></g><g class="com.sun.star.drawing.CustomShape"><path d="M27.067 266.733H3.438v-30.38h47.258v30.38H27.067z" fill="#cc0"/><path d="M27.067 266.733H3.438v-30.38h47.258v30.38H27.067" fill="none" stroke="gray" stroke-width=".034"/><path fill="none" d="M3.438 236.352H50.73v30.414H3.438z"/></g><g class="com.sun.star.drawing.CustomShape"><path d="M81.076 266.733H57.447v-30.38h47.258v30.38H81.076z" fill="#cc0"/><path d="M81.076 266.733H57.447v-30.38h47.258v30.38H81.076" fill="none" stroke="gray" stroke-width=".034"/><path fill="none" d="M57.447 236.352h47.292v30.414H57.447z"/></g><g class="com.sun.star.drawing.CustomShape"><path d="M135.085 266.733h-23.629v-30.38h47.258v30.38h-23.629z" fill="#cc0"/><path d="M135.085 266.733h-23.629v-30.38h47.258v30.38h-23.629" fill="none" stroke="gray" stroke-width=".034"/><path fill="none" d="M111.456 236.352h47.292v30.414h-47.292z"/></g><g class="com.sun.star.drawing.CustomShape"><path d="M27 139.207H3.371v-27.005h47.258v27.005H27z" fill="#ff950e"/><path d="M27 139.207H3.371v-27.005h47.258v27.005H27" fill="none" stroke="gray" stroke-width=".034"/><path fill="none" d="M3.371 112.202h47.292v27.038H3.37z"/></g><text style="text-align:start;line-height:138.99999857%;-inkscape-font-specification:Arial" x="157.721" y="172.844" font-size="20" font-weight="400" letter-spacing="0" word-spacing="0" font-family="Arial" transform="translate(-155.72 -154.14)"><tspan x="157.721" y="172.844">Stack</tspan></text><text style="text-align:start;line-height:138.99999857%;-inkscape-font-specification:Arial" x="395.791" y="173.003" font-size="20" font-weight="400" letter-spacing="0" word-spacing="0" font-family="Arial" transform="translate(-155.72 -154.14)"><tspan x="395.791" y="173.003">Heap</tspan></text><text style="text-align:start;line-height:138.99999857%;-inkscape-font-specification:Arial" x="385.399" y="410.015" font-size="20" font-weight="400" letter-spacing="0" word-spacing="0" font-family="Arial" transform="translate(-155.72 -154.14)"><tspan x="385.399" y="410.015">Queue</tspan></text></svg>